# xmcd
#
# Track frame offsets:
#	150
#	10037
#	23974
#	39730
#	61353
#	72899
#	85326
#	100778
#	112997
#	127076
#
# Disc length: 1904 seconds
#
# Revision: 0
# Processed by: cddbd v1.4PL0 Copyright (c) Steve Scherf et al.
# Submitted via: dBpowerAMP V4.0
#
DISCID=7f076e0a
DTITLE=Moe Bandy - Act Naturally
DYEAR=1900
DGENRE=Country
TTITLE0=Act Naturally
TTITLE1=Borrowed Angel
TTITLE2=If We're Not Back In Love By Monday
TTITLE3=Lyin' Eyes
TTITLE4=Lovesick Blues
TTITLE5=She's All I Got
TTITLE6=Crazy
TTITLE7=Amarillo By Morning
TTITLE8=That's The Way Love Goes
TTITLE9=Ragged Old Flag
EXTD=
EXTT0=
EXTT1=
EXTT2=
EXTT3=
EXTT4=
EXTT5=
EXTT6=
EXTT7=
EXTT8=
EXTT9=
PLAYORDER=
